<svg width="32" height="32" viewBox="0 0 32 32" fill="none" xmlns="http://www.w3.org/2000/svg">
  <rect width="32" height="32" fill="#0B5D4C"/>
  <path d="M8 11.2V20.8H24V11.2H8ZM10.4 18.4V13.6H21.6V18.4H10.4Z" fill="#D4AF37"/>
  <path d="M14.8 16C14.8 16.8837 14.0837 17.6 13.2 17.6C12.3163 17.6 11.6 16.8837 11.6 16C11.6 15.1163 12.3163 14.4 13.2 14.4C14.0837 14.4 14.8 15.1163 14.8 16Z" fill="#D4AF37"/>
  <path d="M20.4 16C20.4 16.8837 19.6837 17.6 18.8 17.6C17.9163 17.6 17.2 16.8837 17.2 16C17.2 15.1163 17.9163 14.4 18.8 14.4C19.6837 14.4 20.4 15.1163 20.4 16Z" fill="#D4AF37"/>
</svg>